<svg width="60" height="60" viewBox="0 0 60 60" fill="none" xmlns="http://www.w3.org/2000/svg">
<path d="M59.595 29.6534C59.595 37.9423 56.2094 45.414 50.7807 50.7843C45.4688 56.0962 38.1138 59.3067 30 59.3067C21.9446 59.3067 14.5896 56.0378 9.21932 50.7843C3.79065 45.414 0.405029 37.9423 0.405029 29.6534C0.405029 13.2506 13.6556 0 30 0C46.3444 0 59.595 13.309 59.595 29.6534Z" fill="#F6F8FA"/>
<path d="M50.7828 14.126V50.7841C45.4709 56.096 38.1159 59.3065 30.0021 59.3065C21.9467 59.3065 14.5917 56.0376 9.22144 50.7841V14.126H50.7828Z" fill="white"/>
<path opacity="0.5" d="M30.7351 32.8345L22.6043 24.7031L19.8386 27.4701L27.9699 35.6013L30.7351 32.8345Z" fill="#979FAF"/>
<path opacity="0.5" d="M37.4032 20.6641L25.2681 32.7997L28.0338 35.5608L40.1689 23.4251L37.4032 20.6641Z" fill="#979FAF"/>
<path d="M40.6254 40.5693H19.3777V43.2545H40.6254V40.5693Z" fill="#D5DAE5"/>
<path d="M40.6254 46.4648H19.3777V49.15H40.6254V46.4648Z" fill="#D5DAE5"/>
<path d="M35.4303 52.4189H24.573V55.1041H35.4303V52.4189Z" fill="#D5DAE5"/>
</svg>
