<svg width="32" height="32" viewBox="0 0 32 32" fill="none" xmlns="http://www.w3.org/2000/svg">
<path d="M10 12.1067V14.1067" stroke="#117ACA" stroke-width="1.5" stroke-linecap="round" stroke-linejoin="round"/>
<path d="M22 12.1067V14.1067" stroke="#117ACA" stroke-width="1.5" stroke-linecap="round" stroke-linejoin="round"/>
<path d="M14.6666 18.1293H15.3333C16.0693 18.1293 16.6666 17.532 16.6666 16.796V12.1293" stroke="#117ACA" stroke-width="1.5" stroke-linecap="round" stroke-linejoin="round"/>
<path d="M20.3227 21.5427C17.936 23.9293 14.0654 23.9293 11.6787 21.5427" stroke="#117ACA" stroke-width="1.5" stroke-linecap="round" stroke-linejoin="round"/>
<path d="M10.1173 4H6.66667C5.19333 4 4 5.19333 4 6.66667V10.1173" stroke="#117ACA" stroke-width="1.5" stroke-linecap="round" stroke-linejoin="round"/>
<path d="M21.8827 28H25.3334C26.8067 28 28 26.8067 28 25.3334V21.8827" stroke="#117ACA" stroke-width="1.5" stroke-linecap="round" stroke-linejoin="round"/>
<path d="M4 21.8827V25.3334C4 26.8067 5.19333 28 6.66667 28H10.1173" stroke="#117ACA" stroke-width="1.5" stroke-linecap="round" stroke-linejoin="round"/>
<path d="M28 10.1173V6.66667C28 5.19333 26.8067 4 25.3334 4H21.8827" stroke="#117ACA" stroke-width="1.5" stroke-linecap="round" stroke-linejoin="round"/>
</svg>
